<?xml version="1.0" encoding="iso-8859-1"?>
<!-- Generator: Adobe Illustrator 19.0.0, SVG Export Plug-In . SVG Version: 6.00 Build 0)  -->
<svg version="1.1" id="Layer_1" xmlns="http://www.w3.org/2000/svg" x="0px" y="0px"
     viewBox="0 0 512.461 512.461" style="enable-background:new 0 0 512.461 512.461;" xml:space="preserve">

		<path fill="none" stroke="#000000" stroke-linecap="round" stroke-linejoin="round" stroke-miterlimit="10"
              stroke-width="18" d="M508.621,245.991l-0.853-0.853L390.861,139.324c-1.707-1.707-4.267-2.56-5.973-2.56H8.568c-3.413,0-6.827,2.56-7.68,5.12
			c-1.707,3.413-0.853,7.68,1.707,10.24l118.613,104.107L3.448,361.191c-2.56,2.56-3.413,5.973-2.56,9.387
			c0.853,2.56,4.267,5.12,7.68,5.12h376.32c1.707,0,4.267-0.853,5.973-2.56l116.907-105.813l0.853-0.853
			C513.741,260.497,513.741,251.964,508.621,245.991z M381.475,358.631H30.755l102.4-92.16c0,0,0.853,0,0.853-0.853
			c5.12-5.973,5.12-14.507,0-20.48l-0.853-0.853l-102.4-90.453h350.72l113.493,102.4L381.475,358.631z"/>

</svg>
