<svg version="1.1" xmlns="http://www.w3.org/2000/svg" x="0px" y="0px"
     viewBox="0 0 511.999 511.999" style="enable-background:new 0 0 511.999 511.999;" xml:space="preserve">

	<path fill="none" stroke="#000000" stroke-linecap="round" stroke-linejoin="round" stroke-miterlimit="10"
          stroke-width="4" d="M256.53,27.002h-33.336c-4.143,0-7.5,3.357-7.5,7.5s3.357,7.5,7.5,7.5h33.336c4.143,0,7.5-3.357,7.5-7.5
	S260.673,27.002,256.53,27.002z"/>
    <path fill="none" stroke="#000000" stroke-linecap="round" stroke-linejoin="round" stroke-miterlimit="10"
          stroke-width="4" d="M291.883,33.042c-0.1-0.48-0.24-0.961-0.43-1.41c-0.19-0.45-0.42-0.891-0.69-1.29c-0.27-0.41-0.58-0.8-0.93-1.141
	c-1.74-1.75-4.33-2.55-6.77-2.05c-0.48,0.09-0.95,0.24-1.4,0.42c-0.45,0.19-0.89,0.42-1.3,0.69c-0.41,0.28-0.79,0.59-1.141,0.939
	c-0.34,0.341-0.659,0.73-0.93,1.141c-0.27,0.399-0.5,0.84-0.689,1.29c-0.181,0.449-0.33,0.93-0.431,1.41
	c-0.09,0.479-0.14,0.97-0.14,1.46c0,1.979,0.8,3.909,2.189,5.3c0.351,0.35,0.73,0.66,1.141,0.939
	c0.412,0.271,0.851,0.5,1.301,0.691c0.45,0.18,0.92,0.33,1.4,0.42c0.489,0.1,0.979,0.15,1.47,0.15s0.979-0.051,1.46-0.15
	c0.479-0.09,0.95-0.24,1.41-0.42c0.45-0.19,0.88-0.42,1.29-0.69c0.41-0.279,0.79-0.59,1.14-0.939c1.4-1.391,2.2-3.32,2.2-5.3
	C292.033,34.012,291.983,33.522,291.883,33.042z"/>
    <path fill="none" stroke="#000000" stroke-linecap="round" stroke-linejoin="round" stroke-miterlimit="10"
          stroke-width="4" d="M295.265,241.733c-3.124-2.719-7.862-2.392-10.582,0.733l-32.523,37.372l-12.273-15.247
	c-2.599-3.227-7.32-3.737-10.547-1.14c-3.227,2.598-3.736,7.319-1.14,10.547l17.892,22.227c2.928,3.636,8.435,3.742,11.501,0.221
	l38.405-44.132C298.719,249.189,298.39,244.452,295.265,241.733z"/>
    <path fill="none" stroke="#000000" stroke-linecap="round" stroke-linejoin="round" stroke-miterlimit="10"
          stroke-width="4" d="M217.806,414.305h-0.25c-4.143,0-7.5,3.357-7.5,7.5s3.357,7.5,7.5,7.5h0.25c4.143,0,7.5-3.357,7.5-7.5
	S221.949,414.305,217.806,414.305z"/>
    <path fill="none" stroke="#000000" stroke-linecap="round" stroke-linejoin="round" stroke-miterlimit="10"
          stroke-width="4" d="M248.229,421.806c0,4.143,3.357,7.5,7.5,7.5h0.542c4.143,0,7.5-3.357,7.5-7.5
	C263.771,411.807,248.229,411.793,248.229,421.806z"/>
    <path fill="none" stroke="#000000" stroke-linecap="round" stroke-linejoin="round" stroke-miterlimit="10"
          stroke-width="4" d="M294.443,414.305h-0.25c-4.143,0-7.5,3.357-7.5,7.5s3.357,7.5,7.5,7.5h0.25c4.143,0,7.5-3.357,7.5-7.5
	S298.587,414.305,294.443,414.305z"/>
    <path fill="none" stroke="#000000" stroke-linecap="round" stroke-linejoin="round" stroke-miterlimit="10"
          stroke-width="4" d="M326.658,110.443H186.402c-4.143,0-7.5,3.357-7.5,7.5s3.357,7.5,7.5,7.5h140.257c4.143,0,7.5-3.357,7.5-7.5
			S330.802,110.443,326.658,110.443z"/>
    <path fill="none" stroke="#000000" stroke-linecap="round" stroke-linejoin="round" stroke-miterlimit="10"
          stroke-width="4" d="M326.658,146.443H186.402c-4.143,0-7.5,3.357-7.5,7.5c0,4.143,3.357,7.5,7.5,7.5h140.257c4.143,0,7.5-3.357,7.5-7.5
			C334.159,149.8,330.802,146.443,326.658,146.443z"/>
    <path fill="none" stroke="#000000" stroke-linecap="round" stroke-linejoin="round" stroke-miterlimit="10"
          stroke-width="4" d="M307.509,184.943h-101.96c-18.489,0-33.532,15.043-33.532,33.533v101.959c0,18.49,15.043,33.533,33.532,33.533h71.393
			c4.143,0,7.5-3.357,7.5-7.5s-3.357-7.5-7.5-7.5h-71.393c-10.219,0-18.531-8.313-18.531-18.532V218.476
			c0-10.219,8.314-18.532,18.531-18.532h101.96c10.219,0,18.532,8.314,18.532,18.532v101.959c0,8.886-6.611,16.732-15.38,18.254
			c-4.081,0.708-6.815,4.591-6.107,8.673c0.708,4.082,4.591,6.814,8.673,6.107c16.118-2.797,27.816-16.689,27.816-33.034V218.476
			C341.042,199.986,325.999,184.943,307.509,184.943z"/>
    <path fill="none" stroke="#000000" stroke-linecap="round" stroke-linejoin="round" stroke-miterlimit="10"
          stroke-width="4" d="M409.508,411.806c4.143,0,7.5-3.357,7.5-7.5V49.45c0-27.267-22.183-49.45-49.451-49.45H144.44
			c-27.268,0-49.45,22.183-49.45,49.45v413.099c0,27.268,22.183,49.45,49.45,49.45h223.118c27.268,0,49.451-22.183,49.451-49.45
			v-23.241c0-4.143-3.357-7.5-7.5-7.5s-7.5,3.357-7.5,7.5v23.241c0,18.995-15.454,34.449-34.45,34.449H144.44
			c-18.995,0-34.449-15.454-34.449-34.449V49.45c0-18.995,15.454-34.449,34.449-34.449h223.118c18.996,0,34.45,15.454,34.45,34.449
			v354.855C402.008,408.449,405.366,411.806,409.508,411.806z"/>

    <path fill="none" stroke="#000000" stroke-linecap="round" stroke-linejoin="round" stroke-miterlimit="10"
          stroke-width="4" d="M367.558,27.002h-39.16c-8.765,0-15.895,7.13-15.895,15.895v7.356c0,2.439-2.061,4.5-4.5,4.5H203.996
			c-2.439,0-4.5-2.061-4.5-4.5v-7.459c0-8.708-7.083-15.792-15.791-15.792h-39.265c-12.379,0-22.448,10.071-22.448,22.448v50.991
			c0,4.143,3.357,7.5,7.5,7.5c4.143,0,7.5-3.357,7.5-7.5V49.45c0-4.106,3.341-7.447,7.447-7.447h39.265
			c1.439,0,0.524,2.052,0.79,8.25c0,10.753,8.749,19.501,19.501,19.501h104.006c10.753,0,19.501-8.749,19.501-19.501v-7.356
			c0-0.493,0.4-0.894,0.894-0.894h39.16c4.107,0,7.448,3.341,7.448,7.448v413.097c0,4.107-3.341,7.448-7.448,7.448H144.441
			c-4.107,0-7.448-3.341-7.448-7.447V135.444c-0.001-4.143-3.358-7.5-7.501-7.5s-7.5,3.357-7.5,7.5V462.55
			c0,12.378,10.071,22.448,22.449,22.448h223.118c12.379,0,22.449-10.071,22.449-22.449V49.451
			C390.007,37.072,379.936,27.002,367.558,27.002z"/>
</svg>
